<?xml version="1.0" encoding="UTF-8" standalone="no"?>
<!-- Created with Inkscape (http://www.inkscape.org/) -->

<svg
   xmlns:dc="http://purl.org/dc/elements/1.1/"
   xmlns:cc="http://creativecommons.org/ns#"
   xmlns:rdf="http://www.w3.org/1999/02/22-rdf-syntax-ns#"
   xmlns:svg="http://www.w3.org/2000/svg"
   xmlns="http://www.w3.org/2000/svg"
   xmlns:sodipodi="http://sodipodi.sourceforge.net/DTD/sodipodi-0.dtd"
   xmlns:inkscape="http://www.inkscape.org/namespaces/inkscape"
   version="1.1"
   id="svg10"
   width="458.66666"
   height="80"
   viewBox="0 0 458.66666 80"
   sodipodi:docname="menu_2_right_ligne-2.svg"
   inkscape:version="0.92.4 (5da689c313, 2019-01-14)">
  <metadata
     id="metadata16">
    <rdf:RDF>
      <cc:Work
         rdf:about="">
        <dc:format>image/svg+xml</dc:format>
        <dc:type
           rdf:resource="http://purl.org/dc/dcmitype/StillImage" />
        <dc:title></dc:title>
      </cc:Work>
    </rdf:RDF>
  </metadata>
  <defs
     id="defs14" />
  <sodipodi:namedview
     pagecolor="#ffffff"
     bordercolor="#666666"
     borderopacity="1"
     objecttolerance="10"
     gridtolerance="10"
     guidetolerance="10"
     inkscape:pageopacity="0"
     inkscape:pageshadow="2"
     inkscape:window-width="1920"
     inkscape:window-height="1001"
     id="namedview12"
     showgrid="false"
     inkscape:zoom="1.9186047"
     inkscape:cx="242.50082"
     inkscape:cy="-2.5887851"
     inkscape:window-x="-9"
     inkscape:window-y="-9"
     inkscape:window-maximized="1"
     inkscape:current-layer="svg10" />
  <path
     style="opacity:0;fill:#a56799;fill-opacity:0;stroke:#a56799;stroke-width:0.27185109;stroke-miterlimit:4;stroke-dasharray:none;stroke-opacity:0"
     d="m 374.78445,49.582334 c -0.71666,-0.21627 -7.04939,-0.559458 -14.07272,-0.762641 -7.02334,-0.203184 -13.94243,-0.578458 -15.37576,-0.833944 -1.43333,-0.255486 -7.48629,-0.478502 -13.45102,-0.49559 -5.96472,-0.01709 -11.82836,-0.268405 -13.0303,-0.558482 -2.62039,-0.632406 -30.42114,-1.579447 -60.5611,-2.063032 -12.04,-0.193177 -22.47728,-0.519688 -23.19394,-0.725578 C 232.80828,43.484792 181.628,42.646675 131.639,42.448818 102.23666,42.332443 82.756163,42.060508 82.123854,41.757621 c -0.573333,-0.274638 -1.511515,-0.588934 -2.084848,-0.698434 -0.573333,-0.1095 20.934514,-0.297499 47.795204,-0.417776 38.13776,-0.170774 48.98036,-0.361426 49.48909,-0.870201 0.5018,-0.501841 5.92597,-0.648939 23.61085,-0.640304 21.72856,0.01061 37.13323,-0.354071 68.30485,-1.617005 7.45333,-0.301976 20.35333,-0.709207 28.66667,-0.904959 8.31333,-0.195753 15.34969,-0.504873 15.63636,-0.686935 0.28667,-0.182062 6.12896,-0.502311 12.98287,-0.711666 6.85392,-0.209354 13.18509,-0.588122 14.06929,-0.841706 0.88419,-0.253583 6.18281,-0.469416 11.7747,-0.479627 7.03317,-0.01284 11.13103,-0.251322 13.29435,-0.773676 2.12991,-0.514287 6.13612,-0.757707 12.56162,-0.763252 5.6183,-0.0048 10.11424,-0.245156 11.11524,-0.594108 1.24444,-0.433813 1.83306,-0.433813 2.26687,0 0.32228,0.322281 1.0967,0.585966 1.72094,0.585966 0.62423,0 1.42695,0.351818 1.78382,0.781818 0.35686,0.43 1.17046,0.781818 1.80798,0.781818 1.04755,0 3.16227,0.798216 5.61221,2.118374 0.49778,0.268228 2.03406,0.487687 3.41394,0.487687 1.37989,0 2.77356,0.26466 3.09703,0.588134 0.32348,0.323474 2.25264,0.707229 4.28704,0.852789 2.0344,0.145561 3.82413,0.467264 3.97718,0.714897 0.15304,0.247632 2.59033,0.45024 5.41618,0.45024 3.45273,0 5.20444,0.199542 5.34072,0.608374 0.13178,0.395355 2.24574,0.692547 6.03737,0.848769 4.47912,0.184547 5.83459,0.406469 5.83459,0.955262 0,0.562124 -1.21846,0.714868 -5.70257,0.714868 -3.13642,0 -5.82921,0.204898 -5.98399,0.455329 -0.15477,0.25043 -2.28465,0.560472 -4.73307,0.688981 -2.44842,0.128509 -4.72799,0.509975 -5.06572,0.847702 -0.3498,0.349801 -2.12603,0.614048 -4.12753,0.614048 -1.93241,0 -3.65844,0.234546 -3.83561,0.521213 -0.17717,0.286666 -1.18783,0.522657 -2.24591,0.524423 -1.05808,0.0018 -2.5956,0.353584 -3.4167,0.781818 -0.8211,0.428234 -2.14292,0.778607 -2.93739,0.778607 -0.79446,0 -2.11629,0.350373 -2.93739,0.778607 -0.8211,0.428234 -1.88952,0.780052 -2.37427,0.781818 -0.48475,0.0018 -1.02632,0.237757 -1.20349,0.524423 -0.37672,0.609538 -18.58273,0.643492 -20.58788,0.0384 z"
     id="path825"
     inkscape:connector-curvature="0" />
  <path
     style="opacity:0;fill:#a56799;fill-opacity:0;stroke:#a56799;stroke-width:0.29759121;stroke-miterlimit:4;stroke-dasharray:none;stroke-opacity:0"
     d="m 361.86266,49.582334 c -0.8588,-0.21627 -8.44753,-0.559458 -16.86383,-0.762641 -8.41631,-0.203184 -16.70769,-0.578458 -18.4253,-0.833944 -1.71761,-0.255486 -8.97108,-0.478502 -16.11882,-0.49559 -7.14773,-0.01709 -14.17433,-0.268405 -15.61466,-0.558482 -3.1401,-0.632406 -36.4547,-1.579447 -72.57245,-2.063032 C 207.83965,44.675468 195.3323,44.348957 194.4735,44.143067 191.72772,43.484792 130.39663,42.646675 70.493087,42.448818 35.25925,42.332443 11.915099,42.060508 11.157382,41.757621 10.470337,41.482983 9.3460811,41.168687 8.6590364,41.059187 7.9719917,40.949687 33.745586,40.761688 65.933676,40.641411 111.63547,40.470637 124.62853,40.279985 125.23816,39.77121 c 0.60132,-0.501841 7.10129,-0.648939 28.29369,-0.640304 26.03809,0.01061 44.49803,-0.354071 81.85206,-1.617005 8.93158,-0.301976 24.3901,-0.709207 34.35226,-0.904959 9.96215,-0.195753 18.39406,-0.504873 18.73759,-0.686935 0.34352,-0.182062 7.34454,-0.502311 15.55782,-0.711666 8.21329,-0.209354 15.80014,-0.588122 16.85971,-0.841706 1.05956,-0.253583 7.40908,-0.469416 14.11003,-0.479627 8.42809,-0.01284 13.3387,-0.251322 15.93108,-0.773676 2.55234,-0.514287 7.35312,-0.757707 15.05302,-0.763252 6.7326,-0.0048 12.12024,-0.245156 13.31978,-0.594108 1.49125,-0.433813 2.19661,-0.433813 2.71646,0 0.3862,0.322281 1.31422,0.585966 2.06227,0.585966 0.74803,0 1.70996,0.351818 2.13761,0.781818 0.42764,0.43 1.4026,0.781818 2.16656,0.781818 1.25532,0 3.78946,0.798216 6.72531,2.118374 0.5965,0.268228 2.43748,0.487687 4.09104,0.487687 1.65357,0 3.32365,0.26466 3.71128,0.588134 0.38763,0.323474 2.69941,0.707229 5.13731,0.852789 2.43789,0.145561 4.58258,0.467264 4.76599,0.714897 0.18339,0.247632 3.10408,0.45024 6.49039,0.45024 4.13753,0 6.23666,0.199542 6.39997,0.608374 0.15792,0.395355 2.69115,0.692547 7.23479,0.848769 5.36748,0.184547 6.99179,0.406469 6.99179,0.955262 0,0.562124 -1.46012,0.714868 -6.83359,0.714868 -3.75848,0 -6.98534,0.204898 -7.17082,0.455329 -0.18546,0.25043 -2.73777,0.560472 -5.6718,0.688981 -2.93402,0.128509 -5.66571,0.509975 -6.07043,0.847702 -0.41917,0.349801 -2.54769,0.614048 -4.94616,0.614048 -2.31567,0 -4.38403,0.234546 -4.59634,0.521213 -0.21231,0.286666 -1.42342,0.522657 -2.69135,0.524423 -1.26794,0.0018 -3.1104,0.353584 -4.09435,0.781818 -0.98395,0.428234 -2.56794,0.778607 -3.51998,0.778607 -0.95203,0 -2.53602,0.350373 -3.51997,0.778607 -0.98395,0.428234 -2.26428,0.780052 -2.84517,0.781818 -0.58089,0.0018 -1.22988,0.237757 -1.44219,0.524423 -0.45143,0.609538 -22.26832,0.643492 -24.67116,0.0384 z"
     id="path827"
     inkscape:connector-curvature="0" />
  <path
     style="opacity:0;fill:#a56799;fill-opacity:0;stroke:#a56799;stroke-width:0.27185109;stroke-miterlimit:4;stroke-dasharray:none;stroke-opacity:0"
     d="m 374.78445,49.582334 c -0.71666,-0.21627 -7.04939,-0.559458 -14.07272,-0.762641 -7.02334,-0.203184 -13.94243,-0.578458 -15.37576,-0.833944 -1.43333,-0.255486 -7.48629,-0.478502 -13.45102,-0.49559 -5.96472,-0.01709 -11.82836,-0.268405 -13.0303,-0.558482 -2.62039,-0.632406 -30.42114,-1.579447 -60.5611,-2.063032 -12.04,-0.193177 -22.47728,-0.519688 -23.19394,-0.725578 C 232.80828,43.484792 181.628,42.646675 131.639,42.448818 102.23666,42.332443 82.756163,42.060508 82.123854,41.757621 c -0.573333,-0.274638 -1.511515,-0.588934 -2.084848,-0.698434 -0.573333,-0.1095 20.934514,-0.297499 47.795204,-0.417776 38.13776,-0.170774 48.98036,-0.361426 49.48909,-0.870201 0.5018,-0.501841 5.92597,-0.648939 23.61085,-0.640304 21.72856,0.01061 37.13323,-0.354071 68.30485,-1.617005 7.45333,-0.301976 20.35333,-0.709207 28.66667,-0.904959 8.31333,-0.195753 15.34969,-0.504873 15.63636,-0.686935 0.28667,-0.182062 6.12896,-0.502311 12.98287,-0.711666 6.85392,-0.209354 13.18509,-0.588122 14.06929,-0.841706 0.88419,-0.253583 6.18281,-0.469416 11.7747,-0.479627 7.03317,-0.01284 11.13103,-0.251322 13.29435,-0.773676 2.12991,-0.514287 6.13612,-0.757707 12.56162,-0.763252 5.6183,-0.0048 10.11424,-0.245156 11.11524,-0.594108 1.24444,-0.433813 1.83306,-0.433813 2.26687,0 0.32228,0.322281 1.0967,0.585966 1.72094,0.585966 0.62423,0 1.42695,0.351818 1.78382,0.781818 0.35686,0.43 1.17046,0.781818 1.80798,0.781818 1.04755,0 3.16227,0.798216 5.61221,2.118374 0.49778,0.268228 2.03406,0.487687 3.41394,0.487687 1.37989,0 2.77356,0.26466 3.09703,0.588134 0.32348,0.323474 2.25264,0.707229 4.28704,0.852789 2.0344,0.145561 3.82413,0.467264 3.97718,0.714897 0.15304,0.247632 2.59033,0.45024 5.41618,0.45024 3.45273,0 5.20444,0.199542 5.34072,0.608374 0.13178,0.395355 2.24574,0.692547 6.03737,0.848769 4.47912,0.184547 5.83459,0.406469 5.83459,0.955262 0,0.562124 -1.21846,0.714868 -5.70257,0.714868 -3.13642,0 -5.82921,0.204898 -5.98399,0.455329 -0.15477,0.25043 -2.28465,0.560472 -4.73307,0.688981 -2.44842,0.128509 -4.72799,0.509975 -5.06572,0.847702 -0.3498,0.349801 -2.12603,0.614048 -4.12753,0.614048 -1.93241,0 -3.65844,0.234546 -3.83561,0.521213 -0.17717,0.286666 -1.18783,0.522657 -2.24591,0.524423 -1.05808,0.0018 -2.5956,0.353584 -3.4167,0.781818 -0.8211,0.428234 -2.14292,0.778607 -2.93739,0.778607 -0.79446,0 -2.11629,0.350373 -2.93739,0.778607 -0.8211,0.428234 -1.88952,0.780052 -2.37427,0.781818 -0.48475,0.0018 -1.02632,0.237757 -1.20349,0.524423 -0.37672,0.609538 -18.58273,0.643492 -20.58788,0.0384 z"
     id="path829"
     inkscape:connector-curvature="0" />
  <path
     style="opacity:0;fill:#a56799;fill-opacity:0;fill-rule:evenodd;stroke:#a56799;stroke-width:0.30066106;stroke-miterlimit:4;stroke-dasharray:none;stroke-opacity:0"
     d="m 369.18759,49.582334 c -0.87661,-0.21627 -8.62271,-0.559458 -17.21354,-0.762641 -8.59085,-0.203184 -17.05418,-0.578458 -18.80741,-0.833944 -1.75323,-0.255486 -9.15712,-0.478502 -16.45309,-0.49559 -7.29595,-0.01709 -14.46827,-0.268405 -15.93847,-0.558482 C 297.56986,46.299271 263.56439,45.35223 226.69764,44.868645 211.9705,44.675468 199.20376,44.348957 198.32716,44.143067 195.52444,43.484792 132.92147,42.646675 71.775672,42.448818 35.811165,42.332443 11.982909,42.060508 11.209478,41.757621 10.508186,41.482983 9.3606153,41.168687 8.6593229,41.059187 7.9580304,40.949687 34.266111,40.761688 67.121709,40.641411 113.77125,40.470637 127.03377,40.279985 127.65603,39.77121 c 0.6138,-0.501841 7.24856,-0.648939 28.88045,-0.640304 26.57805,0.01061 45.42082,-0.354071 83.54947,-1.617005 9.1168,-0.301976 24.8959,-0.709207 35.06465,-0.904959 10.16875,-0.195753 18.77551,-0.504873 19.12617,-0.686935 0.35065,-0.182062 7.49685,-0.502311 15.88045,-0.711666 8.38362,-0.209354 16.12781,-0.588122 17.20935,-0.841706 1.08153,-0.253583 7.56272,-0.469416 14.40264,-0.479627 8.60287,-0.01284 13.61531,-0.251322 16.26145,-0.773676 2.60527,-0.514287 7.50561,-0.757707 15.36519,-0.763252 6.87222,-0.0048 12.37158,-0.245156 13.596,-0.594108 1.52217,-0.433813 2.24217,-0.433813 2.7728,0 0.3942,0.322281 1.34147,0.585966 2.10503,0.585966 0.76354,0 1.74542,0.351818 2.18194,0.781818 0.43651,0.43 1.43169,0.781818 2.21149,0.781818 1.28135,0 3.86804,0.798216 6.86478,2.118374 0.60888,0.268228 2.48802,0.487687 4.17587,0.487687 1.68787,0 3.39258,0.26466 3.78825,0.588134 0.39568,0.323474 2.75539,0.707229 5.24384,0.852789 2.48845,0.145561 4.67762,0.467264 4.86483,0.714897 0.18719,0.247632 3.16845,0.45024 6.62499,0.45024 4.22333,0 6.36599,0.199542 6.53269,0.608374 0.16119,0.395355 2.74696,0.692547 7.38482,0.848769 5.47879,0.184547 7.13679,0.406469 7.13679,0.955262 0,0.562124 -1.4904,0.714868 -6.97531,0.714868 -3.83642,0 -7.1302,0.204898 -7.31952,0.455329 -0.18931,0.25043 -2.79455,0.560472 -5.78943,0.688981 -2.99486,0.128509 -5.7832,0.509975 -6.1963,0.847702 -0.42787,0.349801 -2.60054,0.614048 -5.04874,0.614048 -2.3637,0 -4.47495,0.234546 -4.69166,0.521213 -0.21672,0.286666 -1.45294,0.522657 -2.74716,0.524423 -1.29423,0.0018 -3.17491,0.353584 -4.17926,0.781818 -1.00436,0.428234 -2.6212,0.778607 -3.59298,0.778607 -0.97176,0 -2.58861,0.350373 -3.59297,0.778607 -1.00435,0.428234 -2.31123,0.780052 -2.90417,0.781818 -0.59293,0.0018 -1.25538,0.237757 -1.47209,0.524423 -0.4608,0.609538 -22.73012,0.643492 -25.18279,0.0384 z"
     id="path831"
     inkscape:connector-curvature="0" />
  <path
     style="opacity:0;fill:#a56799;fill-opacity:0;fill-rule:evenodd;stroke:#a56799;stroke-width:0.27185109;stroke-miterlimit:4;stroke-dasharray:none;stroke-opacity:0"
     d="m 374.78445,49.582334 c -0.71666,-0.21627 -7.04939,-0.559458 -14.07272,-0.762641 -7.02334,-0.203184 -13.94243,-0.578458 -15.37576,-0.833944 -1.43333,-0.255486 -7.48629,-0.478502 -13.45102,-0.49559 -5.96472,-0.01709 -11.82836,-0.268405 -13.0303,-0.558482 -2.62039,-0.632406 -30.42114,-1.579447 -60.5611,-2.063032 -12.04,-0.193177 -22.47728,-0.519688 -23.19394,-0.725578 C 232.80828,43.484792 181.628,42.646675 131.639,42.448818 102.23666,42.332443 82.756163,42.060508 82.123854,41.757621 c -0.573333,-0.274638 -1.511515,-0.588934 -2.084848,-0.698434 -0.573333,-0.1095 20.934514,-0.297499 47.795204,-0.417776 38.13776,-0.170774 48.98036,-0.361426 49.48909,-0.870201 0.5018,-0.501841 5.92597,-0.648939 23.61085,-0.640304 21.72856,0.01061 37.13323,-0.354071 68.30485,-1.617005 7.45333,-0.301976 20.35333,-0.709207 28.66667,-0.904959 8.31333,-0.195753 15.34969,-0.504873 15.63636,-0.686935 0.28667,-0.182062 6.12896,-0.502311 12.98287,-0.711666 6.85392,-0.209354 13.18509,-0.588122 14.06929,-0.841706 0.88419,-0.253583 6.18281,-0.469416 11.7747,-0.479627 7.03317,-0.01284 11.13103,-0.251322 13.29435,-0.773676 2.12991,-0.514287 6.13612,-0.757707 12.56162,-0.763252 5.6183,-0.0048 10.11424,-0.245156 11.11524,-0.594108 1.24444,-0.433813 1.83306,-0.433813 2.26687,0 0.32228,0.322281 1.0967,0.585966 1.72094,0.585966 0.62423,0 1.42695,0.351818 1.78382,0.781818 0.35686,0.43 1.17046,0.781818 1.80798,0.781818 1.04755,0 3.16227,0.798216 5.61221,2.118374 0.49778,0.268228 2.03406,0.487687 3.41394,0.487687 1.37989,0 2.77356,0.26466 3.09703,0.588134 0.32348,0.323474 2.25264,0.707229 4.28704,0.852789 2.0344,0.145561 3.82413,0.467264 3.97718,0.714897 0.15304,0.247632 2.59033,0.45024 5.41618,0.45024 3.45273,0 5.20444,0.199542 5.34072,0.608374 0.13178,0.395355 2.24574,0.692547 6.03737,0.848769 4.47912,0.184547 5.83459,0.406469 5.83459,0.955262 0,0.562124 -1.21846,0.714868 -5.70257,0.714868 -3.13642,0 -5.82921,0.204898 -5.98399,0.455329 -0.15477,0.25043 -2.28465,0.560472 -4.73307,0.688981 -2.44842,0.128509 -4.72799,0.509975 -5.06572,0.847702 -0.3498,0.349801 -2.12603,0.614048 -4.12753,0.614048 -1.93241,0 -3.65844,0.234546 -3.83561,0.521213 -0.17717,0.286666 -1.18783,0.522657 -2.24591,0.524423 -1.05808,0.0018 -2.5956,0.353584 -3.4167,0.781818 -0.8211,0.428234 -2.14292,0.778607 -2.93739,0.778607 -0.79446,0 -2.11629,0.350373 -2.93739,0.778607 -0.8211,0.428234 -1.88952,0.780052 -2.37427,0.781818 -0.48475,0.0018 -1.02632,0.237757 -1.20349,0.524423 -0.37672,0.609538 -18.58273,0.643492 -20.58788,0.0384 z"
     id="path833"
     inkscape:connector-curvature="0" />
  <path
     style="opacity:0.985;fill:#a56799;fill-opacity:0;fill-rule:evenodd;stroke:#a56799;stroke-width:0.27185109;stroke-miterlimit:4;stroke-dasharray:none;stroke-opacity:0"
     d="m 374.78445,49.582334 c -0.71666,-0.21627 -7.04939,-0.559458 -14.07272,-0.762641 -7.02334,-0.203184 -13.94243,-0.578458 -15.37576,-0.833944 -1.43333,-0.255486 -7.48629,-0.478502 -13.45102,-0.49559 -5.96472,-0.01709 -11.82836,-0.268405 -13.0303,-0.558482 -2.62039,-0.632406 -30.42114,-1.579447 -60.5611,-2.063032 -12.04,-0.193177 -22.47728,-0.519688 -23.19394,-0.725578 C 232.80828,43.484792 181.628,42.646675 131.639,42.448818 102.23666,42.332443 82.756163,42.060508 82.123854,41.757621 c -0.573333,-0.274638 -1.511515,-0.588934 -2.084848,-0.698434 -0.573333,-0.1095 20.934514,-0.297499 47.795204,-0.417776 38.13776,-0.170774 48.98036,-0.361426 49.48909,-0.870201 0.5018,-0.501841 5.92597,-0.648939 23.61085,-0.640304 21.72856,0.01061 37.13323,-0.354071 68.30485,-1.617005 7.45333,-0.301976 20.35333,-0.709207 28.66667,-0.904959 8.31333,-0.195753 15.34969,-0.504873 15.63636,-0.686935 0.28667,-0.182062 6.12896,-0.502311 12.98287,-0.711666 6.85392,-0.209354 13.18509,-0.588122 14.06929,-0.841706 0.88419,-0.253583 6.18281,-0.469416 11.7747,-0.479627 7.03317,-0.01284 11.13103,-0.251322 13.29435,-0.773676 2.12991,-0.514287 6.13612,-0.757707 12.56162,-0.763252 5.6183,-0.0048 10.11424,-0.245156 11.11524,-0.594108 1.24444,-0.433813 1.83306,-0.433813 2.26687,0 0.32228,0.322281 1.0967,0.585966 1.72094,0.585966 0.62423,0 1.42695,0.351818 1.78382,0.781818 0.35686,0.43 1.17046,0.781818 1.80798,0.781818 1.04755,0 3.16227,0.798216 5.61221,2.118374 0.49778,0.268228 2.03406,0.487687 3.41394,0.487687 1.37989,0 2.77356,0.26466 3.09703,0.588134 0.32348,0.323474 2.25264,0.707229 4.28704,0.852789 2.0344,0.145561 3.82413,0.467264 3.97718,0.714897 0.15304,0.247632 2.59033,0.45024 5.41618,0.45024 3.45273,0 5.20444,0.199542 5.34072,0.608374 0.13178,0.395355 2.24574,0.692547 6.03737,0.848769 4.47912,0.184547 5.83459,0.406469 5.83459,0.955262 0,0.562124 -1.21846,0.714868 -5.70257,0.714868 -3.13642,0 -5.82921,0.204898 -5.98399,0.455329 -0.15477,0.25043 -2.28465,0.560472 -4.73307,0.688981 -2.44842,0.128509 -4.72799,0.509975 -5.06572,0.847702 -0.3498,0.349801 -2.12603,0.614048 -4.12753,0.614048 -1.93241,0 -3.65844,0.234546 -3.83561,0.521213 -0.17717,0.286666 -1.18783,0.522657 -2.24591,0.524423 -1.05808,0.0018 -2.5956,0.353584 -3.4167,0.781818 -0.8211,0.428234 -2.14292,0.778607 -2.93739,0.778607 -0.79446,0 -2.11629,0.350373 -2.93739,0.778607 -0.8211,0.428234 -1.88952,0.780052 -2.37427,0.781818 -0.48475,0.0018 -1.02632,0.237757 -1.20349,0.524423 -0.37672,0.609538 -18.58273,0.643492 -20.58788,0.0384 z"
     id="path835"
     inkscape:connector-curvature="0" />
  <path
     style="opacity:0.98500001;fill:#a56799;fill-opacity:0;fill-rule:evenodd;stroke:#a56799;stroke-width:0.27185109;stroke-miterlimit:4;stroke-dasharray:none;stroke-opacity:0"
     d="m 374.78445,49.582334 c -0.71666,-0.21627 -7.04939,-0.559458 -14.07272,-0.762641 -7.02334,-0.203184 -13.94243,-0.578458 -15.37576,-0.833944 -1.43333,-0.255486 -7.48629,-0.478502 -13.45102,-0.49559 -5.96472,-0.01709 -11.82836,-0.268405 -13.0303,-0.558482 -2.62039,-0.632406 -30.42114,-1.579447 -60.5611,-2.063032 -12.04,-0.193177 -22.47728,-0.519688 -23.19394,-0.725578 C 232.80828,43.484792 181.628,42.646675 131.639,42.448818 102.23666,42.332443 82.756163,42.060508 82.123854,41.757621 c -0.573333,-0.274638 -1.511515,-0.588934 -2.084848,-0.698434 -0.573333,-0.1095 20.934514,-0.297499 47.795204,-0.417776 38.13776,-0.170774 48.98036,-0.361426 49.48909,-0.870201 0.5018,-0.501841 5.92597,-0.648939 23.61085,-0.640304 21.72856,0.01061 37.13323,-0.354071 68.30485,-1.617005 7.45333,-0.301976 20.35333,-0.709207 28.66667,-0.904959 8.31333,-0.195753 15.34969,-0.504873 15.63636,-0.686935 0.28667,-0.182062 6.12896,-0.502311 12.98287,-0.711666 6.85392,-0.209354 13.18509,-0.588122 14.06929,-0.841706 0.88419,-0.253583 6.18281,-0.469416 11.7747,-0.479627 7.03317,-0.01284 11.13103,-0.251322 13.29435,-0.773676 2.12991,-0.514287 6.13612,-0.757707 12.56162,-0.763252 5.6183,-0.0048 10.11424,-0.245156 11.11524,-0.594108 1.24444,-0.433813 1.83306,-0.433813 2.26687,0 0.32228,0.322281 1.0967,0.585966 1.72094,0.585966 0.62423,0 1.42695,0.351818 1.78382,0.781818 0.35686,0.43 1.17046,0.781818 1.80798,0.781818 1.04755,0 3.16227,0.798216 5.61221,2.118374 0.49778,0.268228 2.03406,0.487687 3.41394,0.487687 1.37989,0 2.77356,0.26466 3.09703,0.588134 0.32348,0.323474 2.25264,0.707229 4.28704,0.852789 2.0344,0.145561 3.82413,0.467264 3.97718,0.714897 0.15304,0.247632 2.59033,0.45024 5.41618,0.45024 3.45273,0 5.20444,0.199542 5.34072,0.608374 0.13178,0.395355 2.24574,0.692547 6.03737,0.848769 4.47912,0.184547 5.83459,0.406469 5.83459,0.955262 0,0.562124 -1.21846,0.714868 -5.70257,0.714868 -3.13642,0 -5.82921,0.204898 -5.98399,0.455329 -0.15477,0.25043 -2.28465,0.560472 -4.73307,0.688981 -2.44842,0.128509 -4.72799,0.509975 -5.06572,0.847702 -0.3498,0.349801 -2.12603,0.614048 -4.12753,0.614048 -1.93241,0 -3.65844,0.234546 -3.83561,0.521213 -0.17717,0.286666 -1.18783,0.522657 -2.24591,0.524423 -1.05808,0.0018 -2.5956,0.353584 -3.4167,0.781818 -0.8211,0.428234 -2.14292,0.778607 -2.93739,0.778607 -0.79446,0 -2.11629,0.350373 -2.93739,0.778607 -0.8211,0.428234 -1.88952,0.780052 -2.37427,0.781818 -0.48475,0.0018 -1.02632,0.237757 -1.20349,0.524423 -0.37672,0.609538 -18.58273,0.643492 -20.58788,0.0384 z"
     id="path837"
     inkscape:connector-curvature="0" />
  <path
     style="opacity:0.98500001;fill:#a56799;fill-opacity:0;fill-rule:evenodd;stroke:#a56799;stroke-width:0.27185109;stroke-miterlimit:4;stroke-dasharray:none;stroke-opacity:0"
     d="m 384.68748,51.602182 c -1.29,-0.229537 -5.98091,-0.438542 -10.42424,-0.464456 -4.44333,-0.02591 -10.77606,-0.295167 -14.07273,-0.598342 -5.76109,-0.529813 -11.71894,-0.795363 -44.30303,-1.974652 -8.16999,-0.29569 -16.26181,-0.691673 -17.98181,-0.879962 -3.87873,-0.424605 -26.7141,-1.042888 -63.84849,-1.728738 C 218.43385,45.667478 201.8984,45.190043 197.31173,44.895064 182.92672,43.969932 82.936372,43.196845 47.984461,43.740524 36.066146,43.925914 12.930571,43.461571 10.602537,42.99025 9.108356,42.687746 8.0330075,40.813481 8.8730481,39.97586 9.308801,39.541361 18.730541,39.380301 43.712242,39.380301 c 46.055991,0 145.361188,-1.180751 152.817668,-1.817021 3.29667,-0.281309 17.32001,-0.515287 31.16297,-0.519951 13.84296,-0.0047 27.32933,-0.246108 29.96969,-0.536539 2.64037,-0.290432 12.30613,-0.7716 21.47946,-1.069261 38.09612,-1.236167 42.77464,-1.422433 43.52121,-1.73271 0.43,-0.178709 6.99727,-0.571039 14.59394,-0.871845 26.80135,-1.061253 34.18729,-1.441805 38.8303,-2.000686 2.58,-0.310555 7.52806,-0.56657 10.99568,-0.568922 6.14761,-0.0042 7.21666,0.205915 10.75786,2.114097 0.49777,0.268228 1.24104,0.487687 1.6517,0.487687 0.41065,0 1.41066,0.336089 2.22222,0.746864 0.81156,0.410775 2.76557,0.986481 4.34224,1.279346 1.57667,0.292865 4.27394,0.813617 5.99394,1.157227 1.72,0.343611 5.00363,0.798629 7.29697,1.011153 2.29333,0.212524 8.15697,0.772359 13.0303,1.244079 4.87333,0.471719 10.93289,0.999214 13.46569,1.172211 4.04953,0.276594 4.65535,0.446987 5.02179,1.412436 0.22919,0.603843 0.20481,1.361731 -0.0542,1.684195 -0.26691,0.33233 -3.11954,0.742776 -6.58543,0.947532 -13.25043,0.782802 -21.78893,1.699942 -27.10081,2.910962 -1.22245,0.278697 -3.30188,0.506722 -4.62096,0.506722 -2.19503,0 -6.42469,1.054706 -8.6554,2.158306 -0.49778,0.246265 -1.43596,0.456066 -2.08485,0.466224 -0.64889,0.01016 -1.76616,0.353665 -2.48283,0.763349 -0.71666,0.409683 -1.93418,0.75319 -2.7056,0.763349 -0.77141,0.01016 -1.54753,0.253014 -1.7247,0.539681 -0.37239,0.602536 -6.72126,0.585917 -10.16364,-0.0266 z"
     id="path839"
     inkscape:connector-curvature="0" />
  <path
     style="opacity:0.98500001;fill:#a56799;fill-opacity:0;fill-rule:evenodd;stroke:#a56799;stroke-width:0.27185109;stroke-miterlimit:4;stroke-dasharray:none;stroke-opacity:0"
     d="m 384.68748,51.602182 c -1.29,-0.229537 -5.98091,-0.438542 -10.42424,-0.464456 -4.44333,-0.02591 -10.77606,-0.295167 -14.07273,-0.598342 -5.76109,-0.529813 -11.71894,-0.795363 -44.30303,-1.974652 -8.16999,-0.29569 -16.26181,-0.691673 -17.98181,-0.879962 -3.87873,-0.424605 -26.7141,-1.042888 -63.84849,-1.728738 C 218.43385,45.667478 201.8984,45.190043 197.31173,44.895064 182.92672,43.969932 82.936372,43.196845 47.984461,43.740524 36.066146,43.925914 12.930571,43.461571 10.602537,42.99025 9.108356,42.687746 8.0330075,40.813481 8.8730481,39.97586 9.308801,39.541361 18.730541,39.380301 43.712242,39.380301 c 46.055991,0 145.361188,-1.180751 152.817668,-1.817021 3.29667,-0.281309 17.32001,-0.515287 31.16297,-0.519951 13.84296,-0.0047 27.32933,-0.246108 29.96969,-0.536539 2.64037,-0.290432 12.30613,-0.7716 21.47946,-1.069261 38.09612,-1.236167 42.77464,-1.422433 43.52121,-1.73271 0.43,-0.178709 6.99727,-0.571039 14.59394,-0.871845 26.80135,-1.061253 34.18729,-1.441805 38.8303,-2.000686 2.58,-0.310555 7.52806,-0.56657 10.99568,-0.568922 6.14761,-0.0042 7.21666,0.205915 10.75786,2.114097 0.49777,0.268228 1.24104,0.487687 1.6517,0.487687 0.41065,0 1.41066,0.336089 2.22222,0.746864 0.81156,0.410775 2.76557,0.986481 4.34224,1.279346 1.57667,0.292865 4.27394,0.813617 5.99394,1.157227 1.72,0.343611 5.00363,0.798629 7.29697,1.011153 2.29333,0.212524 8.15697,0.772359 13.0303,1.244079 4.87333,0.471719 10.93289,0.999214 13.46569,1.172211 4.04953,0.276594 4.65535,0.446987 5.02179,1.412436 0.22919,0.603843 0.20481,1.361731 -0.0542,1.684195 -0.26691,0.33233 -3.11954,0.742776 -6.58543,0.947532 -13.25043,0.782802 -21.78893,1.699942 -27.10081,2.910962 -1.22245,0.278697 -3.30188,0.506722 -4.62096,0.506722 -2.19503,0 -6.42469,1.054706 -8.6554,2.158306 -0.49778,0.246265 -1.43596,0.456066 -2.08485,0.466224 -0.64889,0.01016 -1.76616,0.353665 -2.48283,0.763349 -0.71666,0.409683 -1.93418,0.75319 -2.7056,0.763349 -0.77141,0.01016 -1.54753,0.253014 -1.7247,0.539681 -0.37239,0.602536 -6.72126,0.585917 -10.16364,-0.0266 z"
     id="path841"
     inkscape:connector-curvature="0" />
  <path
     style="opacity:0.98500001;fill:#a56799;fill-opacity:0;fill-rule:nonzero;stroke:#a56799;stroke-width:0.27185109;stroke-miterlimit:4;stroke-dasharray:none;stroke-opacity:0"
     d="m 384.68748,51.602182 c -1.29,-0.229537 -5.98091,-0.438542 -10.42424,-0.464456 -4.44333,-0.02591 -10.77606,-0.295167 -14.07273,-0.598342 -5.76109,-0.529813 -11.71894,-0.795363 -44.30303,-1.974652 -8.16999,-0.29569 -16.26181,-0.691673 -17.98181,-0.879962 -3.87873,-0.424605 -26.7141,-1.042888 -63.84849,-1.728738 C 218.43385,45.667478 201.8984,45.190043 197.31173,44.895064 182.92672,43.969932 82.936372,43.196845 47.984461,43.740524 36.066146,43.925914 12.930571,43.461571 10.602537,42.99025 9.108356,42.687746 8.0330075,40.813481 8.8730481,39.97586 9.308801,39.541361 18.730541,39.380301 43.712242,39.380301 c 46.055991,0 145.361188,-1.180751 152.817668,-1.817021 3.29667,-0.281309 17.32001,-0.515287 31.16297,-0.519951 13.84296,-0.0047 27.32933,-0.246108 29.96969,-0.536539 2.64037,-0.290432 12.30613,-0.7716 21.47946,-1.069261 38.09612,-1.236167 42.77464,-1.422433 43.52121,-1.73271 0.43,-0.178709 6.99727,-0.571039 14.59394,-0.871845 26.80135,-1.061253 34.18729,-1.441805 38.8303,-2.000686 2.58,-0.310555 7.52806,-0.56657 10.99568,-0.568922 6.14761,-0.0042 7.21666,0.205915 10.75786,2.114097 0.49777,0.268228 1.24104,0.487687 1.6517,0.487687 0.41065,0 1.41066,0.336089 2.22222,0.746864 0.81156,0.410775 2.76557,0.986481 4.34224,1.279346 1.57667,0.292865 4.27394,0.813617 5.99394,1.157227 1.72,0.343611 5.00363,0.798629 7.29697,1.011153 2.29333,0.212524 8.15697,0.772359 13.0303,1.244079 4.87333,0.471719 10.93289,0.999214 13.46569,1.172211 4.04953,0.276594 4.65535,0.446987 5.02179,1.412436 0.22919,0.603843 0.20481,1.361731 -0.0542,1.684195 -0.26691,0.33233 -3.11954,0.742776 -6.58543,0.947532 -13.25043,0.782802 -21.78893,1.699942 -27.10081,2.910962 -1.22245,0.278697 -3.30188,0.506722 -4.62096,0.506722 -2.19503,0 -6.42469,1.054706 -8.6554,2.158306 -0.49778,0.246265 -1.43596,0.456066 -2.08485,0.466224 -0.64889,0.01016 -1.76616,0.353665 -2.48283,0.763349 -0.71666,0.409683 -1.93418,0.75319 -2.7056,0.763349 -0.77141,0.01016 -1.54753,0.253014 -1.7247,0.539681 -0.37239,0.602536 -6.72126,0.585917 -10.16364,-0.0266 z"
     id="path843"
     inkscape:connector-curvature="0" />
  <path
     style="opacity:0.98500001;fill:#a56799;fill-opacity:0;fill-rule:nonzero;stroke:#a56799;stroke-width:0.27185109;stroke-miterlimit:4;stroke-dasharray:none;stroke-opacity:0"
     d="m 384.68748,51.602182 c -1.29,-0.229537 -5.98091,-0.438542 -10.42424,-0.464456 -4.44333,-0.02591 -10.77606,-0.295167 -14.07273,-0.598342 -5.76109,-0.529813 -11.71894,-0.795363 -44.30303,-1.974652 -8.16999,-0.29569 -16.26181,-0.691673 -17.98181,-0.879962 -3.87873,-0.424605 -26.7141,-1.042888 -63.84849,-1.728738 C 218.43385,45.667478 201.8984,45.190043 197.31173,44.895064 182.92672,43.969932 82.936372,43.196845 47.984461,43.740524 36.066146,43.925914 12.930571,43.461571 10.602537,42.99025 9.108356,42.687746 8.0330075,40.813481 8.8730481,39.97586 9.308801,39.541361 18.730541,39.380301 43.712242,39.380301 c 46.055991,0 145.361188,-1.180751 152.817668,-1.817021 3.29667,-0.281309 17.32001,-0.515287 31.16297,-0.519951 13.84296,-0.0047 27.32933,-0.246108 29.96969,-0.536539 2.64037,-0.290432 12.30613,-0.7716 21.47946,-1.069261 38.09612,-1.236167 42.77464,-1.422433 43.52121,-1.73271 0.43,-0.178709 6.99727,-0.571039 14.59394,-0.871845 26.80135,-1.061253 34.18729,-1.441805 38.8303,-2.000686 2.58,-0.310555 7.52806,-0.56657 10.99568,-0.568922 6.14761,-0.0042 7.21666,0.205915 10.75786,2.114097 0.49777,0.268228 1.24104,0.487687 1.6517,0.487687 0.41065,0 1.41066,0.336089 2.22222,0.746864 0.81156,0.410775 2.76557,0.986481 4.34224,1.279346 1.57667,0.292865 4.27394,0.813617 5.99394,1.157227 1.72,0.343611 5.00363,0.798629 7.29697,1.011153 2.29333,0.212524 8.15697,0.772359 13.0303,1.244079 4.87333,0.471719 10.93289,0.999214 13.46569,1.172211 4.04953,0.276594 4.65535,0.446987 5.02179,1.412436 0.22919,0.603843 0.20481,1.361731 -0.0542,1.684195 -0.26691,0.33233 -3.11954,0.742776 -6.58543,0.947532 -13.25043,0.782802 -21.78893,1.699942 -27.10081,2.910962 -1.22245,0.278697 -3.30188,0.506722 -4.62096,0.506722 -2.19503,0 -6.42469,1.054706 -8.6554,2.158306 -0.49778,0.246265 -1.43596,0.456066 -2.08485,0.466224 -0.64889,0.01016 -1.76616,0.353665 -2.48283,0.763349 -0.71666,0.409683 -1.93418,0.75319 -2.7056,0.763349 -0.77141,0.01016 -1.54753,0.253014 -1.7247,0.539681 -0.37239,0.602536 -6.72126,0.585917 -10.16364,-0.0266 z"
     id="path845"
     inkscape:connector-curvature="0" />
  <path
     style="opacity:0.98500001;fill:#a56799;fill-opacity:1;fill-rule:nonzero;stroke:#a56799;stroke-width:0.27185109;stroke-miterlimit:4;stroke-dasharray:none;stroke-opacity:0"
     d="m 71.26555,29.847555 c 1.29,0.22953 5.98091,0.43854 10.42424,0.46445 4.44333,0.0259 10.77606,0.29517 14.07273,0.59834 5.76109,0.52982 11.71894,0.79537 44.30303,1.97466 8.16999,0.29569 16.26181,0.69167 17.98181,0.87996 3.87873,0.4246 26.7141,1.04289 63.84849,1.72874 15.62333,0.28855 32.15878,0.76599 36.74545,1.06096 14.38501,0.92514 114.37536,1.69822 149.32727,1.15454 11.91831,-0.18539 35.05389,0.27896 37.38192,0.75028 1.49418,0.3025 2.56953,2.17677 1.72949,3.01439 -0.43575,0.4345 -9.85749,0.59556 -34.83919,0.59556 -46.05599,0 -145.36119,1.18075 -152.81767,1.81702 -3.29667,0.28131 -17.32001,0.51529 -31.16297,0.51995 -13.84296,0.005 -27.32933,0.24611 -29.96969,0.53654 -2.64037,0.29043 -12.30613,0.7716 -21.47946,1.06926 -38.09612,1.23617 -42.77464,1.42243 -43.52121,1.73271 -0.43,0.17871 -6.99727,0.57104 -14.59394,0.87184 -26.80135,1.06126 -34.18729,1.44181 -38.8303,2.00069 -2.58,0.31056 -7.52806,0.56657 -10.99568,0.56892 -6.14761,0.004 -7.21666,-0.20591 -10.75786,-2.11409 -0.49777,-0.26823 -1.24104,-0.48769 -1.6517,-0.48769 -0.41065,0 -1.41066,-0.33609 -2.22222,-0.74687 -0.81156,-0.41077 -2.76557,-0.98648 -4.34224,-1.27934 -1.57667,-0.29287 -4.27394,-0.81362 -5.99394,-1.15723 -1.72,-0.34361 -5.00363,-0.79863 -7.29697,-1.01115 -2.29333,-0.21253 -8.15697,-0.77236 -13.0303,-1.24408 -4.87333,-0.47172 -10.93289,-0.99921 -13.46569,-1.17221 -4.0495299,-0.2766 -4.6553499,-0.44699 -5.0217899,-1.41244 -0.22919,-0.60384 -0.20481,-1.36173 0.0542,-1.68419 0.26691,-0.33233 3.1195401,-0.74278 6.5854299,-0.94753 13.25043,-0.78281 21.78893,-1.69995 27.10081,-2.91097 1.22245,-0.27869 3.30188,-0.50672 4.62096,-0.50672 2.19503,0 6.42469,-1.0547 8.6554,-2.1583 0.49778,-0.24627 1.43596,-0.45607 2.08485,-0.46623 0.64889,-0.0102 1.76616,-0.35366 2.48283,-0.76335 0.71666,-0.40968 1.93418,-0.75319 2.7056,-0.76335 0.77141,-0.0102 1.54753,-0.25301 1.7247,-0.53968 0.37239,-0.60253 6.72126,-0.58591 10.16364,0.0266 z"
     id="path847"
     inkscape:connector-curvature="0" />
</svg>
