<?xml version="1.0" encoding="UTF-8" standalone="no"?>
<svg
   xmlns:dc="http://purl.org/dc/elements/1.1/"
   xmlns:cc="http://creativecommons.org/ns#"
   xmlns:rdf="http://www.w3.org/1999/02/22-rdf-syntax-ns#"
   xmlns:svg="http://www.w3.org/2000/svg"
   xmlns="http://www.w3.org/2000/svg"
   xmlns:sodipodi="http://sodipodi.sourceforge.net/DTD/sodipodi-0.dtd"
   xmlns:inkscape="http://www.inkscape.org/namespaces/inkscape"
   version="1.0"
   width="900.000000pt"
   height="117.000000pt"
   viewBox="0 0 900.000000 117.000000"
   preserveAspectRatio="xMidYMid meet"
   id="svg109"
   sodipodi:docname="menu_1_right.svg"
   inkscape:version="0.92.4 (5da689c313, 2019-01-14)">
  <defs
     id="defs113" />
  <sodipodi:namedview
     pagecolor="#ffffff"
     bordercolor="#666666"
     borderopacity="1"
     objecttolerance="10"
     gridtolerance="10"
     guidetolerance="10"
     inkscape:pageopacity="0"
     inkscape:pageshadow="2"
     inkscape:window-width="1920"
     inkscape:window-height="1001"
     id="namedview111"
     showgrid="false"
     inkscape:zoom="0.37"
     inkscape:cx="600"
     inkscape:cy="78"
     inkscape:window-x="-9"
     inkscape:window-y="-9"
     inkscape:window-maximized="1"
     inkscape:current-layer="svg109" />
  <metadata
     id="metadata103">
Created by potrace 1.10, written by Peter Selinger 2001-2011
<rdf:RDF>
  <cc:Work
     rdf:about="">
    <dc:format>image/svg+xml</dc:format>
    <dc:type
       rdf:resource="http://purl.org/dc/dcmitype/StillImage" />
    <dc:title></dc:title>
  </cc:Work>
</rdf:RDF>
</metadata>
  <g
     transform="matrix(-0.1,0,0,-0.1,889.05,117)"
     id="g107"
     style="fill:#3c1218;stroke:none">
    <path
       d="M 1933,710 472,705 446,681 c -34,-32 -34,-73 0,-100 26,-20 37,-21 424,-21 410,0 430,-2 535,-43 21,-8 196,-14 595,-18 541,-6 609,-9 685,-38 22,-8 769,-11 2865,-9 2738,3 2836,4 2878,22 37,16 42,22 42,50 0,38 -32,78 -85,105 -39,21 -46,21 -1170,21 -932,0 -1136,2 -1170,14 -144,49 -49,46 -1395,48 -690,2 -1913,1 -2717,-2 z"
       id="path105"
       inkscape:connector-curvature="0" />
  </g>
</svg>
